<svg xmlns="http://www.w3.org/2000/svg" version="1.1" xmlns:xlink="http://www.w3.org/1999/xlink" xmlns:svgjs="http://svgjs.dev/svgjs" width="1000" height="1000" viewBox="0 0 1000 1000"><rect width="1000" height="1000" fill="#f9f9f9"></rect><g transform="matrix(0.7,0,0,0.7,149.57575757575756,282.1265587044535)"><svg viewBox="0 0 396 247" data-background-color="#f9f9f9" preserveAspectRatio="xMidYMid meet" height="623" width="1000" xmlns="http://www.w3.org/2000/svg" xmlns:xlink="http://www.w3.org/1999/xlink"><g id="tight-bounds" transform="matrix(1,0,0,1,0.2400000000000091,-0.09999999999999432)"><svg viewBox="0 0 395.52 247.2" height="247.2" width="395.52"><g><svg viewBox="0 0 395.52 247.2" height="247.2" width="395.52"><g transform="matrix(1,0,0,1,20.926179271917448,0)"><svg viewBox="0 0 353.6676414561651 247.2" height="247.2" width="353.6676414561651"><g><svg viewBox="0 0 353.6676414561651 247.2" height="247.2" width="353.6676414561651"><g><svg viewBox="0 0 395.52 276.45317959380884" height="247.2" width="353.6676414561651"><g><svg viewBox="0 0 395.52 276.45317959380884" height="276.45317959380884" width="395.52"><g id="textblocktransform"><svg viewBox="0 0 395.52 276.45317959380884" height="276.45317959380884" width="395.52" id="textblock"><g><svg viewBox="0 0 395.52 201.09303370786515" height="201.09303370786515" width="395.52"><g transform="matrix(1,0,0,1,0,0)"><svg width="395.52" viewBox="-0.10000000149011612 -40.70000076293945 88.98999786376953 45.25" height="201.09303370786515" data-palette-color="#030303"><path d="M45-33.95L45-33.95Q45-35.7 43.4-37.25L43.4-37.25Q41.1-39.45 37.05-39.45L37.05-39.45Q33.5-39.45 29.2-37.9L29.2-37.9Q26.95-37.1 25.3-35.7L25.3-35.7Q22.75-33.5 22.75-31.3L22.75-31.3Q22.75-28.35 26.5-26L26.5-26Q27.9-25.15 32.13-23.23 36.35-21.3 38.3-20.1L38.3-20.1Q41.25-18.3 42.38-16.25 43.5-14.2 43.5-12.45L43.5-12.45Q43.5-9.95 41.85-7.35L41.85-7.35Q38.95-2.7 33.35 0.65L33.35 0.65Q26.9 4.55 17.8 4.55L17.8 4.55Q9.05 4.55 3.9 0.1L3.9 0.1Q-0.1-3.3-0.1-8.65L-0.1-8.65Q-0.1-12.05 2.38-16.15 4.85-20.25 8.45-21.95L8.45-21.95Q9.2-22.25 9.58-22.15 9.95-22.05 8.95-21.2L8.95-21.2Q6.8-19.5 5.5-17.45L5.5-17.45Q2.7-13.05 2.7-7.9L2.7-7.9Q2.7-4.5 4.6-1.95L4.6-1.95Q8 2.6 16.4 3.2L16.4 3.2Q17.35 3.3 19.23 3.3 21.1 3.3 24.33 2.63 27.55 1.95 30.55 0.4L30.55 0.4Q37-3 38.9-8.4L38.9-8.4Q39.5-10 39.5-11.5L39.5-11.5Q39.5-14.9 36.45-17.5L36.45-17.5Q34.8-18.8 29.73-20.98 24.65-23.15 22.9-24.3L22.9-24.3Q19.05-26.9 19.05-30.45L19.05-30.45Q19.05-33.55 22.5-36.5L22.5-36.5Q27.45-40.7 36.5-40.7L36.5-40.7Q40.75-40.7 43.43-39.43 46.1-38.15 46.7-35.6L46.7-35.6Q46.8-35.1 46.8-34.6L46.8-34.6Q46.8-32.65 45-31.1L45-31.1Q43.75-30.1 41.65-29.5L41.65-29.5Q40.75-29.25 40.65-29.7L40.65-29.7Q40.55-30.35 41.9-30.5L41.9-30.5Q44.3-30.8 44.85-32.9L44.85-32.9Q45-33.45 45-33.95ZM57-17.5L57-17.5Q60.65-17.5 60.65-12.9L60.65-12.9Q60.65-10.8 59.55-8.4L59.55-8.4Q58.15-5.15 55.35-2.5L55.35-2.5Q56-1.25 57.7-1.25L57.7-1.25Q59.05-1.25 60.25-2.6L60.25-2.6Q61.75-4.15 62.4-5.33 63.05-6.5 63.35-7.05 63.65-7.6 64.12-8.63 64.6-9.65 64.7-9.88 64.8-10.1 65.05-10.1L65.05-10.1Q65.55-10.15 65.55-9.75L65.55-9.75Q65.55-9.6 65.45-9.4L65.45-9.4 65.15-8.7Q64.85-8 64.7-7.7 64.55-7.4 64.17-6.63 63.8-5.85 63.52-5.4 63.25-4.95 62.77-4.2 62.3-3.45 61.92-3 61.55-2.55 61-2 60.45-1.45 59.95-1.15L59.95-1.15Q58.7-0.4 57.6-0.4L57.6-0.4Q55.55-0.4 54.4-1.7L54.4-1.7Q52.1 0 50.15 0L50.15 0Q46.5 0 46.5-4.6L46.5-4.6Q46.5-6.7 47.6-9.1L47.6-9.1Q49.1-12.6 51.82-15.05 54.55-17.5 57-17.5ZM57.55-15.95L57.55-15.95Q56.2-15.95 54.35-14.15 52.5-12.35 51.05-9.25L51.05-9.25Q49.3-5.65 49.3-3.35 49.3-1.05 51.05-1.05L51.05-1.05Q52.3-1.05 53.85-2.4L53.85-2.4Q53.05-3.55 53.05-4.85L53.05-4.85Q53.15-7 54.8-7L54.8-7Q55.45-7 55.87-6.55 56.3-6.1 56.3-5.73 56.3-5.35 56.2-4.95L56.2-4.95Q57.05-6.2 58.15-8.5L58.15-8.5Q59.4-11.05 59.4-13.5 59.4-15.95 57.55-15.95ZM67.4-9.65Q67.35-9.45 66.95-8.28 66.55-7.1 66.27-6.03 66-4.95 66-3.88 66-2.8 66.5-1.88 67-0.95 68.1-0.95L68.1-0.95Q69.9-0.95 71.6-3.38 73.3-5.8 75.2-9.55L75.2-9.55Q75.6-10.25 75.95-10.1L75.95-10.1Q76.2-9.9 76.05-9.58 75.9-9.25 75.42-8.18 74.95-7.1 74.72-6.68 74.5-6.25 73.92-5.18 73.35-4.1 72.92-3.58 72.5-3.05 71.77-2.23 71.05-1.4 70.4-1L70.4-1Q68.65 0.1 67.1 0.1 65.55 0.1 64.7-0.58 63.85-1.25 63.67-2.02 63.5-2.8 63.5-3.4 63.5-4 63.55-4.95L63.55-4.95Q63.7-6.55 64.17-8.05 64.65-9.55 64.7-9.75L64.7-9.75Q65.85-13.9 67.97-18.8 70.1-23.7 71.57-26.18 73.05-28.65 73.9-29.55L73.9-29.55Q75.6-31.35 77.25-31.35L77.25-31.35Q78.4-31.35 78.8-29.7L78.8-29.7Q78.85-29.4 78.85-28.95L78.85-28.95Q78.85-27.25 77.65-24.65L77.65-24.65Q73.35-15.1 67.4-9.65L67.4-9.65ZM67.8-11.25Q70.35-13.85 72.85-17.8 75.35-21.75 76.52-24.53 77.7-27.3 77.7-28.3 77.7-29.3 77.35-29.3L77.35-29.3Q76.85-29.3 75.45-27.33 74.05-25.35 71.67-20.23 69.3-15.1 67.8-11.25L67.8-11.25ZM79.49-0.95L79.49-0.95Q80.14-0.85 80.39-0.85L80.39-0.85Q82.39-0.85 84.34-3.2L84.34-3.2Q85.39-4.5 88.09-9.75L88.09-9.75Q88.19-10 88.44-10L88.44-10Q88.89-10.05 88.89-9.65L88.89-9.65Q88.89-9.55 88.67-9.08 88.44-8.6 88.24-8.13 88.04-7.65 87.59-6.75 87.14-5.85 86.82-5.3 86.49-4.75 85.99-3.95 85.49-3.15 84.99-2.7L84.99-2.7 83.94-1.6Q83.09-0.75 81.94-0.4L81.94-0.4Q80.09 0.2 78.34-0.3L78.34-0.3Q77.19 0.2 76.29 0.2L76.29 0.2Q72.74 0.2 71.99-2.6L71.99-2.6Q71.84-3.25 71.84-4.17 71.84-5.1 72.47-5.95 73.09-6.8 73.79-6.85L73.79-6.85Q76.34-11.7 78.14-15.6L78.14-15.6Q80.14-19.85 82.79-19.85L82.79-19.85Q83.49-19.85 84.17-19.53 84.84-19.2 84.67-18.8 84.49-18.4 83.94-18.65 83.39-18.9 82.99-18.9 82.59-18.9 82.29-18.75L82.29-18.75Q80.59-17.95 80.59-15.3L80.59-15.3Q80.59-13.9 80.99-13 81.39-12.1 81.89-11.05L81.89-11.05Q83.04-8.45 83.04-6.8L83.04-6.8Q83.04-5.15 81.99-3.55 80.94-1.95 79.49-0.95ZM77.79-1.3L77.79-1.3Q79.99-3 79.99-6.8L79.99-6.8Q79.99-8.35 79.64-11.05 79.29-13.75 79.29-14.7 79.29-15.65 79.34-16L79.34-16Q75.54-8.4 74.64-6.75L74.64-6.75Q75.69-6.75 75.69-5.25L75.69-5.25Q75.69-2.3 77.79-1.3ZM74.04-2.65L74.04-2.65Q74.04-2.35 74.09-2L74.09-2Q74.49-0.65 75.94-0.65L75.94-0.65Q76.54-0.65 76.94-0.85L76.94-0.85Q75.09-2 74.94-4.6L74.94-4.6Q74.04-3.7 74.04-2.65Z" opacity="1" transform="matrix(1,0,0,1,0,0)" fill="#030303" class="wordmark-text-0" data-fill-palette-color="primary" id="text-0"></path></svg></g></svg></g><g transform="matrix(1,0,0,1,0,248.56627273348312)"><svg viewBox="0 0 395.52 27.886906860325738" height="27.886906860325738" width="395.52"><g transform="matrix(1,0,0,1,0,0)"><svg width="395.52" viewBox="1.7999999523162842 -37.5 709.0599975585938 50" height="27.886906860325738" data-palette-color="#030303"><path d="M19.65-2.25L19.65-2.25Q21.05-3.5 21.88-5.3 22.7-7.1 22.7-9.3L22.7-9.3Q22.65-12.75 21.28-14.65 19.9-16.55 17.85-17.6L17.85-17.6Q15.7-18.65 13.28-19.25 10.85-19.85 8.9-20.75L8.9-20.75Q7.2-21.5 6.1-22.73 5-23.95 5-26.2L5-26.2Q5-27.55 5.43-28.8 5.85-30.05 6.7-31.05L6.7-31.05Q7.55-32.05 8.88-32.65 10.2-33.25 12-33.25L12-33.25Q14.05-33.25 15.58-32.77 17.1-32.3 18.05-31.7L18.05-31.7 18.05-27.3 20.05-27.3 20.05-32.7Q19.1-33.45 18.03-33.98 16.95-34.5 15.95-34.75L15.95-34.75Q14.9-35 13.9-35.1 12.9-35.2 12.05-35.2L12.05-35.2Q9.55-35.2 7.8-34.38 6.05-33.55 4.95-32.2L4.95-32.2Q3.85-30.85 3.38-29.18 2.9-27.5 2.95-25.85L2.95-25.85Q3.05-23.4 4.05-21.95 5.05-20.5 6.6-19.6L6.6-19.6Q8.1-18.75 9.93-18.2 11.75-17.65 13.5-17.1L13.5-17.1Q15-16.55 16.32-15.98 17.65-15.4 18.65-14.4L18.65-14.4Q19.6-13.55 20.13-12.25 20.65-10.95 20.65-9.2L20.65-9.2Q20.65-7.45 19.9-6.03 19.15-4.6 18-3.6L18-3.6Q16.75-2.65 15.2-2.1 13.65-1.55 11.95-1.55L11.95-1.55Q9.15-1.55 7.15-2.45 5.15-3.35 3.8-4.6L3.8-4.6 3.8-9.1 1.8-9.1 1.8-3.75Q2.35-3.1 3.3-2.38 4.25-1.65 5.6-1.05L5.6-1.05Q6.85-0.4 8.53 0 10.2 0.4 12.15 0.4L12.15 0.4Q14.3 0.4 16.25-0.28 18.2-0.95 19.65-2.25ZM30 0L36.15 0 36.15-1.95 32.05-1.95 32.05-16.75 37.85-16.75 37.85-18.75 32.05-18.75 32.05-30.95 30-30.95 30-18.75 25.65-18.75 25.65-16.75 30-16.75 30 0ZM51.15-17.15L51.15-17.15Q53.1-17.15 54.67-16.07 56.25-15 57.15-13.3L57.15-13.3Q53.75-11.95 50.37-10.63 47-9.3 43.6-7.95L43.6-7.95Q43.25-9.65 43.65-11.28 44.05-12.9 45.05-14.2L45.05-14.2Q46.1-15.55 47.67-16.35 49.25-17.15 51.15-17.15ZM57.7-2.25L57.7-2.25 56.45-3.75Q55.4-2.75 54.05-2.2 52.7-1.65 51.15-1.65L51.15-1.65Q48.8-1.65 46.95-2.85 45.1-4.05 44.2-6L44.2-6Q48.1-7.6 51.97-9.1 55.85-10.6 59.75-12.15L59.75-12.15Q59.25-13.65 58.45-14.93 57.65-16.2 56.6-17.1L56.6-17.1Q55.5-18.1 54.1-18.63 52.7-19.15 51.15-19.15L51.15-19.15Q49.1-19.15 47.32-18.38 45.55-17.6 44.2-16.3L44.2-16.3Q42.85-15 42.1-13.2 41.35-11.4 41.35-9.4L41.35-9.4Q41.35-7.35 42.1-5.6 42.85-3.85 44.2-2.5L44.2-2.5Q45.55-1.15 47.32-0.4 49.1 0.35 51.15 0.35L51.15 0.35Q53.1 0.35 54.75-0.35 56.4-1.05 57.7-2.25ZM63.79 10.55L63.79 12.5 73.44 12.5 73.44 10.55 69.19 10.55 69.19-2.25Q69.19-2.7 69.17-3.18 69.14-3.65 69.14-4.15L69.14-4.15Q69.49-3.25 70.17-2.48 70.84-1.7 71.89-1.05L71.89-1.05Q72.89-0.35 74.19 0.03 75.49 0.4 76.99 0.4L76.99 0.4Q78.99 0.4 80.79-0.38 82.59-1.15 83.94-2.45L83.94-2.45Q85.29-3.75 86.04-5.55 86.79-7.35 86.79-9.35L86.79-9.35Q86.79-11.35 86.04-13.13 85.29-14.9 83.94-16.25L83.94-16.25Q82.59-17.6 80.79-18.35 78.99-19.1 76.99-19.1L76.99-19.1Q73.99-19.1 71.89-17.65 69.79-16.2 68.94-14.25L68.94-14.25Q68.94-15.35 68.87-16.48 68.79-17.6 68.79-18.75L68.79-18.75 63.39-18.75 63.39-16.8 67.14-16.8 67.14 10.55 63.79 10.55ZM76.99-17.1L76.99-17.1Q78.54-17.1 79.94-16.53 81.34-15.95 82.39-15L82.39-15Q83.49-13.95 84.12-12.5 84.74-11.05 84.74-9.35L84.74-9.35Q84.74-7.7 84.12-6.25 83.49-4.8 82.39-3.75L82.39-3.75Q81.34-2.75 79.94-2.18 78.54-1.6 76.99-1.6L76.99-1.6Q75.34-1.6 73.94-2.18 72.54-2.75 71.49-3.75L71.49-3.75Q70.39-4.85 69.79-6.28 69.19-7.7 69.19-9.35L69.19-9.35Q69.19-10.95 69.77-12.38 70.34-13.8 71.39-14.85L71.39-14.85Q72.44-15.9 73.87-16.5 75.29-17.1 76.99-17.1ZM105.29 0L115.34 0 115.34-1.95 111.24-1.95 111.24-33.05 115.34-33.05 115.34-35 105.29-35 105.29-33.05 109.19-33.05 109.19-1.95 105.29-1.95 105.29 0ZM118.84 0L128.49 0 128.49-1.95 124.79-1.95 124.79-10.25Q124.79-11.75 125.41-13 126.04-14.25 127.14-15.2L127.14-15.2Q128.14-16.1 129.54-16.6 130.94-17.1 132.49-17.1L132.49-17.1Q134.59-17 135.66-15.83 136.74-14.65 136.84-13L136.84-13 136.84-1.95 132.94-1.95 132.94 0 142.59 0 142.59-1.95 138.89-1.95 138.89-13.55Q138.79-16.05 137.19-17.6 135.59-19.15 132.84-19.15L132.84-19.15Q130.04-19.15 127.84-17.7 125.64-16.25 124.64-13.9L124.64-13.9Q124.59-14.75 124.54-15.43 124.49-16.1 124.44-16.95L124.44-16.95 124.39-18.75 119.14-18.75 119.14-16.8 122.74-16.8 122.74-1.95 118.84-1.95 118.84 0ZM150.43 0L156.58 0 156.58-1.95 152.48-1.95 152.48-16.75 158.28-16.75 158.28-18.75 152.48-18.75 152.48-30.95 150.43-30.95 150.43-18.75 146.08-18.75 146.08-16.75 150.43-16.75 150.43 0ZM178.68-2.5L178.68-2.5Q179.98-3.85 180.76-5.6 181.53-7.35 181.53-9.4L181.53-9.4Q181.53-11.4 180.76-13.2 179.98-15 178.68-16.35L178.68-16.35Q177.33-17.65 175.51-18.43 173.68-19.2 171.63-19.2L171.63-19.2Q169.58-19.2 167.78-18.43 165.98-17.65 164.68-16.35L164.68-16.35Q163.33-15 162.58-13.2 161.83-11.4 161.83-9.4L161.83-9.4Q161.83-7.35 162.58-5.58 163.33-3.8 164.68-2.5L164.68-2.5Q165.98-1.15 167.76-0.4 169.53 0.35 171.63 0.35L171.63 0.35Q173.68 0.35 175.51-0.4 177.33-1.15 178.68-2.5ZM166.13-3.95L166.13-3.95Q165.08-4.95 164.48-6.35 163.88-7.75 163.88-9.4L163.88-9.4Q163.88-11 164.48-12.4 165.08-13.8 166.13-14.9L166.13-14.9Q167.18-15.95 168.58-16.55 169.98-17.15 171.58-17.15L171.58-17.15Q173.18-17.15 174.61-16.55 176.03-15.95 177.08-14.9L177.08-14.9Q178.18-13.8 178.78-12.4 179.38-11 179.38-9.4L179.38-9.4Q179.38-7.75 178.78-6.35 178.18-4.95 177.08-3.95L177.08-3.95Q176.03-2.85 174.61-2.25 173.18-1.65 171.58-1.65L171.58-1.65Q169.98-1.65 168.58-2.25 167.18-2.85 166.13-3.95ZM217.93-2.25L217.93-2.25Q219.33-3.5 220.15-5.3 220.98-7.1 220.98-9.3L220.98-9.3Q220.93-12.75 219.55-14.65 218.18-16.55 216.13-17.6L216.13-17.6Q213.98-18.65 211.55-19.25 209.13-19.85 207.18-20.75L207.18-20.75Q205.48-21.5 204.38-22.73 203.28-23.95 203.28-26.2L203.28-26.2Q203.28-27.55 203.7-28.8 204.13-30.05 204.98-31.05L204.98-31.05Q205.83-32.05 207.15-32.65 208.48-33.25 210.28-33.25L210.28-33.25Q212.33-33.25 213.85-32.77 215.38-32.3 216.33-31.7L216.33-31.7 216.33-27.3 218.33-27.3 218.33-32.7Q217.38-33.45 216.3-33.98 215.23-34.5 214.23-34.75L214.23-34.75Q213.18-35 212.18-35.1 211.18-35.2 210.33-35.2L210.33-35.2Q207.83-35.2 206.08-34.38 204.33-33.55 203.23-32.2L203.23-32.2Q202.13-30.85 201.65-29.18 201.18-27.5 201.23-25.85L201.23-25.85Q201.33-23.4 202.33-21.95 203.33-20.5 204.88-19.6L204.88-19.6Q206.38-18.75 208.2-18.2 210.03-17.65 211.78-17.1L211.78-17.1Q213.28-16.55 214.6-15.98 215.93-15.4 216.93-14.4L216.93-14.4Q217.88-13.55 218.4-12.25 218.93-10.95 218.93-9.2L218.93-9.2Q218.93-7.45 218.18-6.03 217.43-4.6 216.28-3.6L216.28-3.6Q215.03-2.65 213.48-2.1 211.93-1.55 210.23-1.55L210.23-1.55Q207.43-1.55 205.43-2.45 203.43-3.35 202.08-4.6L202.08-4.6 202.08-9.1 200.08-9.1 200.08-3.75Q200.63-3.1 201.58-2.38 202.53-1.65 203.88-1.05L203.88-1.05Q205.13-0.4 206.8 0 208.48 0.4 210.43 0.4L210.43 0.4Q212.58 0.4 214.53-0.28 216.48-0.95 217.93-2.25ZM228.27 0L234.42 0 234.42-1.95 230.32-1.95 230.32-16.75 236.12-16.75 236.12-18.75 230.32-18.75 230.32-30.95 228.27-30.95 228.27-18.75 223.92-18.75 223.92-16.75 228.27-16.75 228.27 0ZM242.47 12.5L252.12 12.5 252.12 10.55 248.92 10.55Q252.32 3.65 255.72-3.13 259.12-9.9 262.52-16.8L262.52-16.8 266.17-16.8 266.17-18.75 257.42-18.75 257.42-16.8 260.32-16.8Q258.42-13 256.55-9.25 254.67-5.5 253.02-1.85L253.02-1.85Q251.27-5.6 249.4-9.3 247.52-13 245.67-16.8L245.67-16.8 248.87-16.8 248.87-18.75 239.62-18.75 239.62-16.8 243.47-16.8Q245.57-12.5 247.67-8.3 249.77-4.1 251.92 0.1L251.92 0.1Q250.62 2.7 249.3 5.3 247.97 7.9 246.72 10.55L246.72 10.55 242.47 10.55 242.47 12.5ZM269.67 0L279.32 0 279.32-1.95 275.42-1.95 275.42-37.5 269.82-37.5 269.82-35.55 273.37-35.55 273.37-1.95 269.67-1.95 269.67 0ZM292.62-17.15L292.62-17.15Q294.56-17.15 296.14-16.07 297.71-15 298.62-13.3L298.62-13.3Q295.21-11.95 291.84-10.63 288.46-9.3 285.06-7.95L285.06-7.95Q284.71-9.65 285.12-11.28 285.51-12.9 286.51-14.2L286.51-14.2Q287.56-15.55 289.14-16.35 290.71-17.15 292.62-17.15ZM299.17-2.25L299.17-2.25 297.92-3.75Q296.87-2.75 295.51-2.2 294.17-1.65 292.62-1.65L292.62-1.65Q290.26-1.65 288.42-2.85 286.56-4.05 285.67-6L285.67-6Q289.56-7.6 293.44-9.1 297.31-10.6 301.21-12.15L301.21-12.15Q300.71-13.65 299.92-14.93 299.12-16.2 298.06-17.1L298.06-17.1Q296.96-18.1 295.56-18.63 294.17-19.15 292.62-19.15L292.62-19.15Q290.56-19.15 288.79-18.38 287.01-17.6 285.67-16.3L285.67-16.3Q284.31-15 283.56-13.2 282.81-11.4 282.81-9.4L282.81-9.4Q282.81-7.35 283.56-5.6 284.31-3.85 285.67-2.5L285.67-2.5Q287.01-1.15 288.79-0.4 290.56 0.35 292.62 0.35L292.62 0.35Q294.56 0.35 296.21-0.35 297.87-1.05 299.17-2.25ZM303.96 6L305.86 6Q306.96 3.4 308.01 0.85 309.06-1.7 310.16-4.3L310.16-4.3 307.81-4.3Q306.81-1.7 305.89 0.85 304.96 3.4 303.96 6L303.96 6ZM347.76-2.25L347.76-2.25Q349.16-3.5 349.98-5.3 350.81-7.1 350.81-9.3L350.81-9.3Q350.76-12.75 349.38-14.65 348.01-16.55 345.96-17.6L345.96-17.6Q343.81-18.65 341.38-19.25 338.96-19.85 337.01-20.75L337.01-20.75Q335.31-21.5 334.21-22.73 333.11-23.95 333.11-26.2L333.11-26.2Q333.11-27.55 333.53-28.8 333.96-30.05 334.81-31.05L334.81-31.05Q335.66-32.05 336.98-32.65 338.31-33.25 340.11-33.25L340.11-33.25Q342.16-33.25 343.68-32.77 345.21-32.3 346.16-31.7L346.16-31.7 346.16-27.3 348.16-27.3 348.16-32.7Q347.21-33.45 346.13-33.98 345.06-34.5 344.06-34.75L344.06-34.75Q343.01-35 342.01-35.1 341.01-35.2 340.16-35.2L340.16-35.2Q337.66-35.2 335.91-34.38 334.16-33.55 333.06-32.2L333.06-32.2Q331.96-30.85 331.48-29.18 331.01-27.5 331.06-25.85L331.06-25.85Q331.16-23.4 332.16-21.95 333.16-20.5 334.71-19.6L334.71-19.6Q336.21-18.75 338.03-18.2 339.86-17.65 341.61-17.1L341.61-17.1Q343.11-16.55 344.43-15.98 345.76-15.4 346.76-14.4L346.76-14.4Q347.71-13.55 348.23-12.25 348.76-10.95 348.76-9.2L348.76-9.2Q348.76-7.45 348.01-6.03 347.26-4.6 346.11-3.6L346.11-3.6Q344.86-2.65 343.31-2.1 341.76-1.55 340.06-1.55L340.06-1.55Q337.26-1.55 335.26-2.45 333.26-3.35 331.91-4.6L331.91-4.6 331.91-9.1 329.91-9.1 329.91-3.75Q330.46-3.1 331.41-2.38 332.36-1.65 333.71-1.05L333.71-1.05Q334.96-0.4 336.63 0 338.31 0.4 340.26 0.4L340.26 0.4Q342.41 0.4 344.36-0.28 346.31-0.95 347.76-2.25ZM358.11 0L364.25 0 364.25-1.95 360.15-1.95 360.15-16.75 365.95-16.75 365.95-18.75 360.15-18.75 360.15-30.95 358.11-30.95 358.11-18.75 353.75-18.75 353.75-16.75 358.11-16.75 358.11 0ZM379.25-17.15L379.25-17.15Q381.2-17.15 382.78-16.07 384.35-15 385.25-13.3L385.25-13.3Q381.85-11.95 378.48-10.63 375.1-9.3 371.7-7.95L371.7-7.95Q371.35-9.65 371.75-11.28 372.15-12.9 373.15-14.2L373.15-14.2Q374.2-15.55 375.78-16.35 377.35-17.15 379.25-17.15ZM385.8-2.25L385.8-2.25 384.55-3.75Q383.5-2.75 382.15-2.2 380.8-1.65 379.25-1.65L379.25-1.65Q376.9-1.65 375.05-2.85 373.2-4.05 372.3-6L372.3-6Q376.2-7.6 380.08-9.1 383.95-10.6 387.85-12.15L387.85-12.15Q387.35-13.65 386.55-14.93 385.75-16.2 384.7-17.1L384.7-17.1Q383.6-18.1 382.2-18.63 380.8-19.15 379.25-19.15L379.25-19.15Q377.2-19.15 375.43-18.38 373.65-17.6 372.3-16.3L372.3-16.3Q370.95-15 370.2-13.2 369.45-11.4 369.45-9.4L369.45-9.4Q369.45-7.35 370.2-5.6 370.95-3.85 372.3-2.5L372.3-2.5Q373.65-1.15 375.43-0.4 377.2 0.35 379.25 0.35L379.25 0.35Q381.2 0.35 382.85-0.35 384.5-1.05 385.8-2.25ZM391.9 10.55L391.9 12.5 401.55 12.5 401.55 10.55 397.3 10.55 397.3-2.25Q397.3-2.7 397.27-3.18 397.25-3.65 397.25-4.15L397.25-4.15Q397.6-3.25 398.27-2.48 398.95-1.7 400-1.05L400-1.05Q401-0.35 402.3 0.03 403.6 0.4 405.1 0.4L405.1 0.4Q407.1 0.4 408.9-0.38 410.7-1.15 412.05-2.45L412.05-2.45Q413.4-3.75 414.15-5.55 414.9-7.35 414.9-9.35L414.9-9.35Q414.9-11.35 414.15-13.13 413.4-14.9 412.05-16.25L412.05-16.25Q410.7-17.6 408.9-18.35 407.1-19.1 405.1-19.1L405.1-19.1Q402.1-19.1 400-17.65 397.9-16.2 397.05-14.25L397.05-14.25Q397.05-15.35 396.98-16.48 396.9-17.6 396.9-18.75L396.9-18.75 391.5-18.75 391.5-16.8 395.25-16.8 395.25 10.55 391.9 10.55ZM405.1-17.1L405.1-17.1Q406.65-17.1 408.05-16.53 409.45-15.95 410.5-15L410.5-15Q411.6-13.95 412.23-12.5 412.85-11.05 412.85-9.35L412.85-9.35Q412.85-7.7 412.23-6.25 411.6-4.8 410.5-3.75L410.5-3.75Q409.45-2.75 408.05-2.18 406.65-1.6 405.1-1.6L405.1-1.6Q403.45-1.6 402.05-2.18 400.65-2.75 399.6-3.75L399.6-3.75Q398.5-4.85 397.9-6.28 397.3-7.7 397.3-9.35L397.3-9.35Q397.3-10.95 397.88-12.38 398.45-13.8 399.5-14.85L399.5-14.85Q400.55-15.9 401.98-16.5 403.4-17.1 405.1-17.1ZM433.39 0L443.44 0 443.44-1.95 439.34-1.95 439.34-33.05 443.44-33.05 443.44-35 433.39-35 433.39-33.05 437.29-33.05 437.29-1.95 433.39-1.95 433.39 0ZM446.94 0L456.59 0 456.59-1.95 452.89-1.95 452.89-10.25Q452.89-11.75 453.52-13 454.14-14.25 455.24-15.2L455.24-15.2Q456.24-16.1 457.64-16.6 459.04-17.1 460.59-17.1L460.59-17.1Q462.69-17 463.77-15.83 464.84-14.65 464.94-13L464.94-13 464.94-1.95 461.04-1.95 461.04 0 470.69 0 470.69-1.95 466.99-1.95 466.99-13.55Q466.89-16.05 465.29-17.6 463.69-19.15 460.94-19.15L460.94-19.15Q458.14-19.15 455.94-17.7 453.74-16.25 452.74-13.9L452.74-13.9Q452.69-14.75 452.64-15.43 452.59-16.1 452.54-16.95L452.54-16.95 452.49-18.75 447.24-18.75 447.24-16.8 450.84-16.8 450.84-1.95 446.94-1.95 446.94 0ZM478.54 0L484.69 0 484.69-1.95 480.59-1.95 480.59-16.75 486.39-16.75 486.39-18.75 480.59-18.75 480.59-30.95 478.54-30.95 478.54-18.75 474.19-18.75 474.19-16.75 478.54-16.75 478.54 0ZM506.79-2.5L506.79-2.5Q508.09-3.85 508.86-5.6 509.64-7.35 509.64-9.4L509.64-9.4Q509.64-11.4 508.86-13.2 508.09-15 506.79-16.35L506.79-16.35Q505.44-17.65 503.61-18.43 501.79-19.2 499.74-19.2L499.74-19.2Q497.69-19.2 495.89-18.43 494.09-17.65 492.79-16.35L492.79-16.35Q491.44-15 490.69-13.2 489.94-11.4 489.94-9.4L489.94-9.4Q489.94-7.35 490.69-5.58 491.44-3.8 492.79-2.5L492.79-2.5Q494.09-1.15 495.86-0.4 497.64 0.35 499.74 0.35L499.74 0.35Q501.79 0.35 503.61-0.4 505.44-1.15 506.79-2.5ZM494.24-3.95L494.24-3.95Q493.19-4.95 492.59-6.35 491.99-7.75 491.99-9.4L491.99-9.4Q491.99-11 492.59-12.4 493.19-13.8 494.24-14.9L494.24-14.9Q495.29-15.95 496.69-16.55 498.09-17.15 499.69-17.15L499.69-17.15Q501.29-17.15 502.71-16.55 504.14-15.95 505.19-14.9L505.19-14.9Q506.29-13.8 506.89-12.4 507.49-11 507.49-9.4L507.49-9.4Q507.49-7.75 506.89-6.35 506.29-4.95 505.19-3.95L505.19-3.95Q504.14-2.85 502.71-2.25 501.29-1.65 499.69-1.65L499.69-1.65Q498.09-1.65 496.69-2.25 495.29-2.85 494.24-3.95ZM528.13 0L553.18 0 553.18-7.7 551.23-7.7 551.23-1.95 533.78-1.95 533.78-16.65 550.53-16.65 550.53-18.65 533.78-18.65 533.78-33.05 550.53-33.05 550.53-27.3 552.48-27.3 552.48-35 528.13-35 528.13-33.05 531.73-33.05 531.73-1.95 528.13-1.95 528.13 0ZM556.68 0L566.33 0 566.33-1.95 562.43-1.95 562.43-37.5 556.83-37.5 556.83-35.55 560.38-35.55 560.38-1.95 556.68-1.95 556.68 0ZM579.63-17.15L579.63-17.15Q581.58-17.15 583.15-16.07 584.73-15 585.63-13.3L585.63-13.3Q582.23-11.95 578.85-10.63 575.48-9.3 572.08-7.95L572.08-7.95Q571.73-9.65 572.13-11.28 572.53-12.9 573.53-14.2L573.53-14.2Q574.58-15.55 576.15-16.35 577.73-17.15 579.63-17.15ZM586.18-2.25L586.18-2.25 584.93-3.75Q583.88-2.75 582.53-2.2 581.18-1.65 579.63-1.65L579.63-1.65Q577.28-1.65 575.43-2.85 573.58-4.05 572.68-6L572.68-6Q576.58-7.6 580.45-9.1 584.33-10.6 588.23-12.15L588.23-12.15Q587.73-13.65 586.93-14.93 586.13-16.2 585.08-17.1L585.08-17.1Q583.98-18.1 582.58-18.63 581.18-19.15 579.63-19.15L579.63-19.15Q577.58-19.15 575.8-18.38 574.03-17.6 572.68-16.3L572.68-16.3Q571.33-15 570.58-13.2 569.83-11.4 569.83-9.4L569.83-9.4Q569.83-7.35 570.58-5.6 571.33-3.85 572.68-2.5L572.68-2.5Q574.03-1.15 575.8-0.4 577.58 0.35 579.63 0.35L579.63 0.35Q581.58 0.35 583.23-0.35 584.88-1.05 586.18-2.25ZM595.82 7.95L594.37 9.6Q595.77 10.95 597.7 11.73 599.62 12.5 602.02 12.5L602.02 12.5Q604.02 12.45 605.75 11.68 607.47 10.9 608.77 9.5L608.77 9.5Q610.07 8.15 610.82 6.18 611.57 4.2 611.57 1.7L611.57 1.7 611.57-16.8 615.27-16.8 615.27-18.75 609.92-18.75Q609.82-17.6 609.77-16.53 609.72-15.45 609.72-14.35L609.72-14.35Q608.82-16.35 606.67-17.75 604.52-19.15 601.72-19.15L601.72-19.15Q599.62-19.15 597.85-18.38 596.07-17.6 594.72-16.3L594.72-16.3Q593.37-14.95 592.62-13.15 591.87-11.35 591.87-9.4L591.87-9.4Q591.87-7.35 592.62-5.6 593.37-3.85 594.72-2.55L594.72-2.55Q596.07-1.2 597.85-0.43 599.62 0.35 601.72 0.35L601.72 0.35Q603.17 0.35 604.47-0.03 605.77-0.4 606.82-1.1L606.82-1.1Q607.77-1.7 608.5-2.5 609.22-3.3 609.57-4.25L609.57-4.25Q609.57-3.6 609.55-3 609.52-2.4 609.52-1.9L609.52-1.9 609.52 1.6Q609.52 3.55 608.92 5.18 608.32 6.8 607.32 7.95L607.32 7.95Q606.27 9.15 604.9 9.78 603.52 10.4 601.97 10.4L601.97 10.4Q600.17 10.4 598.52 9.73 596.87 9.05 595.82 7.95L595.82 7.95ZM601.72-17.15L601.72-17.15Q603.27-17.15 604.67-16.6 606.07-16.05 607.12-15.05L607.12-15.05Q608.22-13.95 608.87-12.5 609.52-11.05 609.52-9.4L609.52-9.4Q609.52-7.75 608.92-6.35 608.32-4.95 607.27-3.95L607.27-3.95Q606.22-2.9 604.8-2.27 603.37-1.65 601.72-1.65L601.72-1.65Q600.07-1.65 598.67-2.23 597.27-2.8 596.22-3.85L596.22-3.85Q595.17-4.9 594.55-6.33 593.92-7.75 593.92-9.4L593.92-9.4Q593.92-11 594.5-12.38 595.07-13.75 596.12-14.8L596.12-14.8Q597.12-15.9 598.57-16.53 600.02-17.15 601.72-17.15ZM636.62 0L642.17 0 642.17-1.95 638.47-1.95 638.47-18.75 636.82-18.75Q636.72-17.65 636.67-16.53 636.62-15.4 636.62-14.35L636.62-14.35Q635.77-16.3 633.67-17.73 631.57-19.15 628.62-19.15L628.62-19.15Q626.52-19.15 624.75-18.38 622.97-17.6 621.62-16.3L621.62-16.3Q620.27-14.95 619.52-13.15 618.77-11.35 618.77-9.4L618.77-9.4Q618.77-7.35 619.52-5.6 620.27-3.85 621.62-2.5L621.62-2.5Q622.97-1.15 624.75-0.4 626.52 0.35 628.62 0.35L628.62 0.35Q630.12 0.35 631.45-0.05 632.77-0.45 633.82-1.15L633.82-1.15Q634.82-1.8 635.55-2.63 636.27-3.45 636.62-4.35L636.62-4.35Q636.62-3.7 636.62-3.18 636.62-2.65 636.62-2.05L636.62-2.05 636.62 0ZM628.62-17.15L628.62-17.15Q630.22-17.15 631.62-16.57 633.02-16 634.12-14.95L634.12-14.95Q635.17-13.9 635.8-12.48 636.42-11.05 636.42-9.4L636.42-9.4Q636.42-7.75 635.8-6.33 635.17-4.9 634.07-3.85L634.07-3.85Q633.02-2.8 631.62-2.23 630.22-1.65 628.62-1.65L628.62-1.65Q627.02-1.65 625.67-2.2 624.32-2.75 623.27-3.75L623.27-3.75Q622.12-4.8 621.47-6.25 620.82-7.7 620.82-9.4L620.82-9.4Q620.82-11 621.4-12.4 621.97-13.8 623.02-14.85L623.02-14.85Q624.02-15.95 625.47-16.55 626.92-17.15 628.62-17.15ZM645.67 0L655.32 0 655.32-1.95 651.62-1.95 651.62-10.25Q651.62-11.75 652.24-13 652.87-14.25 653.97-15.2L653.97-15.2Q654.97-16.1 656.37-16.6 657.77-17.1 659.32-17.1L659.32-17.1Q661.42-17 662.49-15.83 663.57-14.65 663.67-13L663.67-13 663.67-1.95 659.77-1.95 659.77 0 669.42 0 669.42-1.95 665.72-1.95 665.72-13.55Q665.62-16.05 664.02-17.6 662.42-19.15 659.67-19.15L659.67-19.15Q656.87-19.15 654.67-17.7 652.47-16.25 651.47-13.9L651.47-13.9Q651.42-14.75 651.37-15.43 651.32-16.1 651.27-16.95L651.27-16.95 651.22-18.75 645.97-18.75 645.97-16.8 649.57-16.8 649.57-1.95 645.67-1.95 645.67 0ZM688.92-1.8L688.92-1.8 687.62-3.35Q686.62-2.55 685.37-2.1 684.12-1.65 682.72-1.65L682.72-1.65Q681.12-1.65 679.69-2.25 678.27-2.85 677.27-3.85L677.27-3.85Q676.17-4.9 675.57-6.33 674.97-7.75 674.97-9.4L674.97-9.4Q674.97-11.05 675.57-12.48 676.17-13.9 677.32-15L677.32-15Q678.32-16 679.72-16.57 681.12-17.15 682.72-17.15L682.72-17.15Q683.97-17.15 685.07-16.8 686.17-16.45 687.07-15.8L687.07-15.8 687.07-12.1 688.97-12.1 688.97-17Q687.72-18 686.12-18.57 684.52-19.15 682.72-19.15L682.72-19.15Q680.67-19.15 678.89-18.38 677.12-17.6 675.77-16.3L675.77-16.3Q674.42-15 673.67-13.2 672.92-11.4 672.92-9.4L672.92-9.4Q672.92-7.35 673.67-5.58 674.42-3.8 675.82-2.5L675.82-2.5Q677.12-1.15 678.89-0.4 680.67 0.35 682.72 0.35L682.72 0.35Q684.52 0.35 686.07-0.23 687.62-0.8 688.92-1.8ZM702.26-17.15L702.26-17.15Q704.21-17.15 705.79-16.07 707.36-15 708.26-13.3L708.26-13.3Q704.86-11.95 701.49-10.63 698.11-9.3 694.71-7.95L694.71-7.95Q694.36-9.65 694.76-11.28 695.16-12.9 696.16-14.2L696.16-14.2Q697.21-15.55 698.79-16.35 700.36-17.15 702.26-17.15ZM708.81-2.25L708.81-2.25 707.56-3.75Q706.51-2.75 705.16-2.2 703.81-1.65 702.26-1.65L702.26-1.65Q699.91-1.65 698.06-2.85 696.21-4.05 695.31-6L695.31-6Q699.21-7.6 703.09-9.1 706.96-10.6 710.86-12.15L710.86-12.15Q710.36-13.65 709.56-14.93 708.76-16.2 707.71-17.1L707.71-17.1Q706.61-18.1 705.21-18.63 703.81-19.15 702.26-19.15L702.26-19.15Q700.21-19.15 698.44-18.38 696.66-17.6 695.31-16.3L695.31-16.3Q693.96-15 693.21-13.2 692.46-11.4 692.46-9.4L692.46-9.4Q692.46-7.35 693.21-5.6 693.96-3.85 695.31-2.5L695.31-2.5Q696.66-1.15 698.44-0.4 700.21 0.35 702.26 0.35L702.26 0.35Q704.21 0.35 705.86-0.35 707.51-1.05 708.81-2.25Z" opacity="1" transform="matrix(1,0,0,1,0,0)" fill="#030303" class="slogan-text-1" data-fill-palette-color="secondary" id="text-1"></path></svg></g></svg></g></svg></g></svg></g></svg></g></svg></g></svg></g></svg></g><defs></defs></svg><rect width="395.52" height="247.2" fill="none" stroke="none" visibility="hidden"></rect></g></svg></g></svg>